<svg width="32" height="32" viewBox="0 0 32 32" fill="none" xmlns="http://www.w3.org/2000/svg">
  <!-- Main diamond shape -->
  <path d="M16 2L30 16L16 30L2 16L16 2Z" fill="#0052CC"/>
  
  <!-- Top facet -->
  <path d="M16 2L23 9L16 16L9 9L16 2Z" fill="#0066FF"/>
  
  <!-- Right facet -->
  <path d="M23 9L30 16L23 23L16 16L23 9Z" fill="#0047B3"/>
  
  <!-- Bottom facet -->
  <path d="M16 16L23 23L16 30L9 23L16 16Z" fill="#003380"/>
  
  <!-- Left facet -->
  <path d="M9 9L16 16L9 23L2 16L9 9Z" fill="#004DB3"/>
  
  <!-- Highlight -->
  <path d="M16 2L20 6L16 10L12 6L16 2Z" fill="#4D94FF" opacity="0.8"/>
  
  <!-- Sparkle -->
  <circle cx="14" cy="6" r="1" fill="white" opacity="0.9"/>
</svg>
